<mxfile host="app.diagrams.net" modified="2023-12-09T09:45:55.948Z" agent="Mozilla/5.0 (Windows NT 10.0; Win64; x64) AppleWebKit/537.36 (KHTML, like Gecko) Chrome/119.0.0.0 Safari/537.36" version="22.1.7" etag="H44tRF8rKIuyelZT-nHL" type="github">
  <diagram name="第 1 页" id="JSKzFgiTAtshDhua5Gei">
    <mxGraphModel>
      <root>
        <mxCell id="0" />
        <mxCell id="1" parent="0" />
      </root>
    </mxGraphModel>
  </diagram>
</mxfile>
